# xmcd
#
# Track frame offsets:
#	150
#	15135
#	35297
#	61712
#	76709
#	100078
#	112577
#	126822
#	140350
#	182494
#	196137
#	208701
#
# Disc length: 2982 seconds
#
# Revision: 0
# Processed by: cddbd v1.5.1PL0 Copyright (c) Steve Scherf et al.
# Submitted via: dBpowerAMP V4.0
#
DISCID=810ba40c
DTITLE=robert b jones - portrait in blues
DYEAR=1900
DGENRE=Blues
TTITLE0=roberts new catfish blues
TTITLE1=death letter blues
TTITLE2=arnesias song
TTITLE3=miss ettareen blues
TTITLE4=pleasure of the harbour
TTITLE5=Lord i just cant keep from crying
TTITLE6=if i had my way
TTITLE7=serious road
TTITLE8=i cant play like b.b. king
TTITLE9=georgies wake up call
TTITLE10=Jesus is going to make up my dying bed
TTITLE11=my soul just keeps on singing
EXTD=
EXTT0=
EXTT1=
EXTT2=
EXTT3=
EXTT4=
EXTT5=
EXTT6=
EXTT7=
EXTT8=
EXTT9=
EXTT10=
EXTT11=
PLAYORDER=
